<?xml version="1.0" encoding="UTF-8"?>
<svg id="Layer_1" data-name="Layer 1" xmlns="http://www.w3.org/2000/svg" version="1.1" xmlns:xlink="http://www.w3.org/1999/xlink" viewBox="0 0 30 30">
  <defs>
    <style>
      .cls-1 {
        fill: #272e39;
      }

      .cls-1, .cls-2, .cls-3 {
        stroke-width: 0px;
      }

      .cls-1, .cls-3 {
        fill-rule: evenodd;
      }

      .cls-2 {
        fill: none;
      }

      .cls-3 {
        fill: #00b1ff;
      }

      .cls-4 {
        clip-path: url(#clippath);
      }
    </style>
    <clipPath id="clippath">
      <rect class="cls-2" y="0" width="30" height="30"/>
    </clipPath>
  </defs>
  <g class="cls-4">
    <g>
      <path class="cls-3" d="M24.7,14.1l4.4-4.4c1.2-1.2,1.2-3.2,0-4.4L24.7.9c-1.2-1.2-3.2-1.2-4.4,0l-4.4,4.4c-1.2,1.2-1.2,3.2,0,4.4l4.4,4.4c1.2,1.2,3.2,1.2,4.4,0ZM27.6,8.2l-4.4,4.4c-.4.4-1.1.4-1.5,0l-4.4-4.4c-.4-.4-.4-1.1,0-1.5l4.4-4.4c.4-.4,1.1-.4,1.5,0l4.4,4.4c.4.4.4,1.1,0,1.5Z"/>
      <path class="cls-1" d="M13.6,19.5c0-.8-.3-1.6-.9-2.2-.6-.6-1.4-.9-2.2-.9H3.1c-.8,0-1.6.3-2.2.9-.6.6-.9,1.4-.9,2.2v7.3c0,.8.3,1.6.9,2.2.6.6,1.4.9,2.2.9h7.3c.8,0,1.6-.3,2.2-.9.6-.6.9-1.4.9-2.2v-7.3ZM29.3,19.5c0-.8-.3-1.6-.9-2.2-.6-.6-1.4-.9-2.2-.9h-7.3c-.8,0-1.6.3-2.2.9-.6.6-.9,1.4-.9,2.2v7.3c0,.8.3,1.6.9,2.2.6.6,1.4.9,2.2.9h7.3c.8,0,1.6-.3,2.2-.9.6-.6.9-1.4.9-2.2v-7.3ZM11.5,19.5v7.3c0,.3-.1.5-.3.7-.2.2-.5.3-.7.3H3.1c-.3,0-.5-.1-.7-.3-.2-.2-.3-.5-.3-.7v-7.3c0-.3.1-.5.3-.7.2-.2.5-.3.7-.3h7.3c.3,0,.5.1.7.3.2.2.3.5.3.7ZM27.2,19.5v7.3c0,.3-.1.5-.3.7-.2.2-.5.3-.7.3h-7.3c-.3,0-.5-.1-.7-.3-.2-.2-.3-.5-.3-.7v-7.3c0-.3.1-.5.3-.7.2-.2.5-.3.7-.3h7.3c.3,0,.5.1.7.3.2.2.3.5.3.7ZM13.6,3.8c0-.8-.3-1.6-.9-2.2-.6-.6-1.4-.9-2.2-.9H3.1c-.8,0-1.6.3-2.2.9-.6.6-.9,1.4-.9,2.2v7.3c0,.8.3,1.6.9,2.2.6.6,1.4.9,2.2.9h7.3c.8,0,1.6-.3,2.2-.9.6-.6.9-1.4.9-2.2V3.8ZM11.5,3.8v7.3c0,.3-.1.5-.3.7-.2.2-.5.3-.7.3H3.1c-.3,0-.5-.1-.7-.3-.2-.2-.3-.5-.3-.7V3.8c0-.3.1-.5.3-.7.2-.2.5-.3.7-.3h7.3c.3,0,.5.1.7.3.2.2.3.5.3.7Z"/>
    </g>
  </g>
</svg>