<?xml version="1.0" encoding="UTF-8"?>
<svg id="Layer_1" data-name="Layer 1" xmlns="http://www.w3.org/2000/svg" version="1.1" viewBox="0 0 50 50">
  <defs>
    <style>
      .cls-1 {
        fill: #00b1ff;
        stroke-width: 0px;
      }
    </style>
  </defs>
  <path class="cls-1" d="M38.3,3.5c0,3.6-3,6.5-6.6,6.5h-13.3c-3.6,0-6.6-2.9-6.7-6.5-3.8.8-6.7,4.1-6.7,8.2v30c0,4.6,3.7,8.3,8.3,8.3h23.3c4.6,0,8.3-3.7,8.3-8.3V11.7c0-4-2.9-7.4-6.7-8.2ZM21.2,38.7l-4.4,4.4c-.3.3-.8.5-1.2.5s-.9-.2-1.2-.5l-2.2-2.2c-.7-.6-.7-1.7,0-2.4.6-.7,1.7-.7,2.4,0l1,1,3.3-3.3c.7-.7,1.7-.7,2.4,0s.7,1.7,0,2.4h0ZM21.2,28.7l-4.4,4.4c-.3.3-.8.5-1.2.5s-.9-.2-1.2-.5l-2.2-2.2c-.7-.6-.7-1.7,0-2.4.6-.7,1.7-.7,2.4,0l1,1,3.3-3.3c.7-.7,1.7-.7,2.4,0,.7.7.7,1.7,0,2.4h0ZM21.2,18.7l-4.4,4.4c-.3.3-.8.5-1.2.5s-.9-.2-1.2-.5l-2.2-2.2c-.7-.6-.7-1.7,0-2.4.6-.7,1.7-.7,2.4,0l1,1,3.3-3.3c.7-.7,1.7-.7,2.4,0,.7.7.7,1.7,0,2.4h0ZM36.6,41.7h-10c-.9,0-1.7-.7-1.7-1.7s.7-1.7,1.7-1.7h10c.9,0,1.7.7,1.7,1.7s-.7,1.7-1.7,1.7ZM36.6,31.7h-10c-.9,0-1.7-.7-1.7-1.7s.7-1.7,1.7-1.7h10c.9,0,1.7.7,1.7,1.7s-.7,1.7-1.7,1.7ZM36.6,21.7h-10c-.9,0-1.7-.7-1.7-1.7s.7-1.7,1.7-1.7h10c.9,0,1.7.7,1.7,1.7s-.7,1.7-1.7,1.7Z"/>
  <path class="cls-1" d="M31.6,0h-13.3C16.5,0,15,1.5,15,3.3s1.5,3.3,3.3,3.3h13.3c1.8,0,3.3-1.5,3.3-3.3S33.5,0,31.6,0Z"/>
</svg>