<?xml version="1.0" encoding="UTF-8"?>
<svg id="Layer_1" data-name="Layer 1" xmlns="http://www.w3.org/2000/svg" version="1.1" viewBox="0 0 50 50">
  <defs>
    <style>
      .cls-1 {
        fill: #00b1ff;
        fill-rule: evenodd;
        stroke-width: 0px;
      }
    </style>
  </defs>
  <path class="cls-1" d="M18,30.1c.7-1.2,2-2.1,3.6-2.5,2,1.7,4.9,1.7,6.8,0,1.6.5,2.9,1.3,3.6,2.5-3.3,5-10.6,5-14,0ZM47,12.7l-1.9,2.5,1.4,2.8-2.9-1.1-2.3,2.2v-3.1c0,0-2.7-1.5-2.7-1.5l3-.9.6-3.1,1.8,2.6,3.1-.4h0ZM37.7,3.4l-.4,3.1,2.6,1.8-3.1.6-.9,3-1.5-2.8h-3.1c0,0,2.2-2.2,2.2-2.2l-1.1-2.9,2.8,1.4,2.5-1.9ZM2.9,12.7l3.1.4,1.8-2.6.6,3.1,3,.9-2.8,1.5v3.1c0,0-2.2-2.2-2.2-2.2l-2.9,1.1,1.4-2.8-1.9-2.5h0ZM12.3,3.4l2.5,1.9,2.8-1.4-1.1,2.9,2.2,2.3h-3.1c0,0-1.5,2.7-1.5,2.7l-.9-3-3.1-.6,2.6-1.8-.4-3.1h0ZM25,0l1.2,2.9,3.1.2-2.4,2,.7,3-2.7-1.7-2.7,1.7.7-3-2.4-2,3.1-.2L25,0ZM25,19.7c2.2,0,4,1.8,4,4s-1.8,4-4,4-4-1.8-4-4,1.8-4,4-4ZM22.6,11.3c1.4-1,3.3-1,4.8,0,.8.6,1.7.8,2.6.7,1.7-.2,3.4.8,4.1,2.4.4.9,1,1.5,1.9,1.9,1.6.7,2.5,2.4,2.4,4.1,0,1,.1,1.8.7,2.6,1,1.4,1,3.3,0,4.8-.6.8-.8,1.7-.7,2.6.2,1.7-.8,3.4-2.4,4.1-.9.4-1.5,1-1.9,1.9-.7,1.6-2.4,2.5-4.1,2.4-1,0-1.8.1-2.6.7-1.4,1-3.3,1-4.8,0-.8-.6-1.7-.8-2.6-.7-1.7.2-3.4-.8-4.1-2.4-.4-.9-1-1.5-1.9-1.9-1.6-.7-2.5-2.4-2.4-4.1,0-1-.1-1.8-.7-2.6-1-1.4-1-3.3,0-4.8.6-.8.8-1.7.7-2.6-.2-1.7.8-3.4,2.4-4.1.9-.4,1.5-1,1.9-1.9.7-1.6,2.4-2.5,4.1-2.4,1,0,1.8-.1,2.6-.7ZM25,15.8c5.3,0,9.6,4.3,9.6,9.6s-4.3,9.6-9.6,9.6-9.6-4.3-9.6-9.6,4.3-9.6,9.6-9.6ZM14.5,36.7l-2.9,10.9,5.6-2.9,3.4,5.4,2.4-8.8c-.4-.1-.7-.3-1-.6-.6-.4-1.1-.6-1.8-.5-2.2.2-4.4-1-5.3-3.1,0-.1-.1-.3-.2-.4ZM35.5,36.7l2.9,10.9-5.6-2.9-3.4,5.4-2.4-8.8c.4-.1.7-.3,1.1-.6.6-.4,1.1-.6,1.8-.5,2.2.2,4.4-1,5.3-3.1,0-.1.1-.3.2-.4Z"/>
</svg>