<?xml version="1.0" encoding="UTF-8"?>
<svg id="Layer_1" data-name="Layer 1" xmlns="http://www.w3.org/2000/svg" version="1.1" xmlns:xlink="http://www.w3.org/1999/xlink" viewBox="0 0 40 40">
  <defs>
    <style>
      .cls-1 {
        fill: none;
      }

      .cls-1, .cls-2 {
        stroke-width: 0px;
      }

      .cls-2 {
        fill: #00b1ff;
      }

      .cls-3 {
        clip-path: url(#clippath);
      }
    </style>
    <clipPath id="clippath">
      <rect class="cls-1" y="0" width="40" height="40"/>
    </clipPath>
  </defs>
  <g class="cls-3">
    <g>
      <path class="cls-2" d="M17.5,9.7c-3.8.9-6.8,3.9-7.7,7.6-.9,3.7.1,7.6,2.8,10.2,1,.9,1.5,2.4,1.5,4v.3c0,1,.5,2,1.2,2.6v2.1c0,1.9,1.6,3.5,3.5,3.5h2.3c1.9,0,3.5-1.6,3.5-3.5v-2.1c.7-.6,1.2-1.6,1.2-2.6v-.3c0-1.6.6-3.1,1.6-4.1,2-2,3.1-4.6,3.1-7.4,0-6.7-6.2-11.8-13.1-10.3ZM22.3,36.5c0,.6-.5,1.2-1.2,1.2h-2.3c-.6,0-1.2-.5-1.2-1.2v-1.2h4.7v1.2ZM25.8,25.8c-1.5,1.5-2.3,3.6-2.3,5.7v.3c0,.6-.5,1.2-1.2,1.2h-4.7c-.6,0-1.2-.5-1.2-1.2v-.3c0-2.2-.8-4.3-2.2-5.7-2.1-2.1-2.9-5-2.2-8,.7-2.9,3-5.2,6-5.9,5.4-1.3,10.2,2.8,10.2,8s-.9,4.2-2.4,5.8Z"/>
      <path class="cls-2" d="M10.9,9.2l-3.3-3.3c-.5-.5-1.2-.5-1.7,0s-.5,1.2,0,1.7l3.3,3.3c.5.5,1.2.5,1.7,0,.5-.5.5-1.2,0-1.7Z"/>
      <path class="cls-2" d="M5.9,18.8H1.2c-.6,0-1.2.5-1.2,1.2s.5,1.2,1.2,1.2h4.8c.6,0,1.2-.5,1.2-1.2s-.5-1.2-1.2-1.2Z"/>
      <path class="cls-2" d="M38.8,18.8h-4.8c-.6,0-1.2.5-1.2,1.2s.5,1.2,1.2,1.2h4.8c.6,0,1.2-.5,1.2-1.2s-.5-1.2-1.2-1.2Z"/>
      <path class="cls-2" d="M34.1,5.9c-.5-.5-1.2-.5-1.7,0l-3.3,3.3c-.5.5-.5,1.2,0,1.7.5.5,1.2.5,1.7,0l3.3-3.3c.5-.5.5-1.2,0-1.7Z"/>
      <path class="cls-2" d="M20,0C19.4,0,18.8.5,18.8,1.2v4.8c0,.6.5,1.2,1.2,1.2s1.2-.5,1.2-1.2V1.2C21.2.5,20.6,0,20,0Z"/>
      <path class="cls-2" d="M20,14.1c-.5,0-1,0-1.5.2-2,.5-3.7,2.1-4.2,4.1-.2.6.2,1.3.9,1.4.6.2,1.3-.2,1.4-.9.3-1.2,1.3-2.1,2.5-2.4.3,0,.6-.1.9-.1.6,0,1.2-.5,1.2-1.2s-.5-1.2-1.2-1.2Z"/>
    </g>
  </g>
</svg>