<?xml version="1.0" encoding="UTF-8"?>
<svg id="Layer_1" data-name="Layer 1" xmlns="http://www.w3.org/2000/svg" version="1.1" viewBox="0 0 40 40">
  <defs>
    <style>
      .cls-1 {
        fill: #00b1ff;
        stroke-width: 0px;
      }
    </style>
  </defs>
  <path class="cls-1" d="M34.5,16.5h0v-2.4C34.4,6.3,28,0,20.2,0S6.1,6.3,6.1,14.1v2.4h-.6c-2.2,0-3.9,1.9-3.9,4.2v6.2c0,2.2,1.7,4,3.8,4,0,0,0,0,0,0h3.7c.5,0,.9-.5.9-1,0,0,0,0,0,0v-12.1c0-.6-.3-1.2-.9-1.2h-1.1v-2.4c0-6.7,5.4-12.1,12.1-12.1s12.1,5.4,12.1,12.1v2.4h-1.1c-.5,0-.9.6-.9,1.2v12.1c0,.5.3,1,.8,1,0,0,0,0,0,0h1.1,0c-1.5,2.1-3.8,3.3-6.3,3.3-.5-2.7-3.1-4.4-5.8-3.8-2.3.5-3.9,2.4-3.9,4.8,0,2.7,2.2,4.9,5,4.9,1.3,0,2.6-.6,3.6-1.5.6-.6,1-1.5,1.2-2.4,3.1,0,6-1.4,7.9-3.9l.9-1.4c2.1-.1,3.5-1.5,3.5-3.4v-6.2c0-2.1-1.6-4.7-3.9-4.7ZM8.1,28.9h-2.6c-1.1,0-1.9-.9-1.9-2,0,0,0,0,0,0v-6.2c0-1.1.8-2.2,1.9-2.2h2.6v10.4ZM23.4,37.1c-.5.6-1.3.9-2.1.9-1.6,0-2.9-1.3-3-2.9,0-1.6,1.3-2.9,2.9-2.9,1.6,0,2.9,1.3,2.9,2.9h0c0,.7-.2,1.5-.7,2ZM36.3,27.4c0,1.3-1.3,1.5-1.9,1.5h-2.1v-10.4h2.1c1.1,0,1.9,1.5,1.9,2.7v6.2Z"/>
</svg>