<?xml version="1.0" encoding="UTF-8"?>
<svg id="Layer_1" data-name="Layer 1" xmlns="http://www.w3.org/2000/svg" version="1.1" xmlns:xlink="http://www.w3.org/1999/xlink" viewBox="0 0 40 40">
  <defs>
    <style>
      .cls-1 {
        fill: none;
      }

      .cls-1, .cls-2 {
        stroke-width: 0px;
      }

      .cls-2 {
        fill: #00b1ff;
      }

      .cls-3 {
        clip-path: url(#clippath);
      }
    </style>
    <clipPath id="clippath">
      <rect class="cls-1" y="0" width="40" height="40"/>
    </clipPath>
  </defs>
  <g class="cls-3">
    <g>
      <path class="cls-2" d="M24.3,10.5c-.1,0-.3,0-.4-.2-.2-.2-.2-.6,0-.8l1.7-1.7c.2-.2.4-.6.4-.9s-.1-.7-.4-.9c-.2-.2-.6-.4-.9-.4s-.7.1-.9.4l-3.2,3.2c-.2.2-.6.2-.8,0-.2-.2-.2-.6,0-.8l3.2-3.2c.5-.5,1.1-.7,1.7-.7s1.3.3,1.7.7c.5.5.7,1.1.7,1.7s-.3,1.3-.7,1.7l-1.7,1.7c-.1.1-.3.2-.4.2Z"/>
      <path class="cls-2" d="M26,14.1c-.1,0-.3,0-.4-.2-.2-.2-.2-.6,0-.8l2.6-2.6c.5-.5.5-1.3,0-1.8-.5-.5-1.3-.5-1.8,0l-1.7,1.7c-.2.2-.6.2-.8,0-.2-.2-.2-.6,0-.8l1.7-1.7c1-1,2.5-1,3.5,0,1,1,1,2.5,0,3.5l-2.6,2.6c-.1.1-.3.2-.4.2Z"/>
      <path class="cls-2" d="M28.6,16.7c-.1,0-.3,0-.4-.2-.2-.2-.2-.6,0-.8l2.6-2.6c.5-.5.5-1.3,0-1.8s-1.3-.5-1.8,0l-2.3,2.3c-.2.2-.6.2-.8,0-.2-.2-.2-.6,0-.8l2.3-2.3c1-1,2.5-1,3.5,0,1,1,1,2.5,0,3.5l-2.6,2.6c-.1.1-.3.2-.4.2Z"/>
      <path class="cls-2" d="M4.5,39.8c-.1,0-.3,0-.4-.2-.2-.2-.2-.6,0-.8l12.1-12.1c.8-.8,1.9-1.2,3-1.2,3,0,5.8-1.2,7.9-3.3l6.5-6.5c.5-.5.5-1.3,0-1.8-.5-.5-1.3-.5-1.8,0l-2.3,2.3c-.2.2-.6.2-.8,0-.2-.2-.2-.6,0-.8l2.3-2.3c1-1,2.5-1,3.5,0,1,1,1,2.5,0,3.5l-6.5,6.5c-1.1,1.1-2.5,2-4,2.7-1.5.6-3.1.9-4.7.9s-1.6.3-2.1.9l-12.1,12.1c-.1.1-.3.2-.4.2Z"/>
      <path class="cls-2" d="M14.1,18.7c-.7,0-1.3-.3-1.7-.7l-2.8-2.8c-.5-.5-.7-1.1-.7-1.7s.3-1.3.7-1.7c.5-.5,1.1-.7,1.7-.7s1.3.3,1.7.7l2.8,2.8c.5.5.7,1.1.7,1.7s-.3,1.3-.7,1.7c-.5.5-1.1.7-1.7.7ZM11.3,12.1c-.3,0-.7.1-.9.4-.2.2-.4.6-.4.9s.1.7.4.9l2.8,2.8c.2.2.6.4.9.4s.7-.1.9-.4c.2-.2.4-.6.4-.9s-.1-.7-.4-.9l-2.8-2.8c-.2-.2-.6-.4-.9-.4Z"/>
      <path class="cls-2" d="M16.8,16c-.7,0-1.3-.3-1.7-.7l-2.8-2.8c-.5-.5-.7-1.1-.7-1.7s.3-1.3.7-1.7c.5-.5,1.1-.7,1.7-.7s1.3.3,1.7.7l2.8,2.8c.5.5.7,1.1.7,1.7s-.3,1.3-.7,1.7c-.5.5-1.1.7-1.7.7ZM15.9,14.5c.2.2.6.4.9.4s.7-.1.9-.4c.2-.2.4-.6.4-.9s-.1-.7-.4-.9l-2.8-2.8c-.2-.2-.6-.4-.9-.4s-.7.1-.9.4c-.2.2-.4.6-.4.9s.1.7.4.9l2.8,2.8Z"/>
      <path class="cls-2" d="M19.4,13.4c-.7,0-1.3-.3-1.7-.7l-2.8-2.8c-.5-.5-.7-1.1-.7-1.7s.3-1.3.7-1.7c.5-.5,1.1-.7,1.7-.7s1.3.3,1.7.7l2.8,2.8c.5.5.7,1.1.7,1.7s-.3,1.3-.7,1.7c-.5.5-1.1.7-1.7.7ZM16.6,6.8c-.3,0-.7.1-.9.4-.2.2-.4.6-.4.9s.1.7.4.9l2.8,2.8c.2.2.6.4.9.4s.7-.1.9-.4c.2-.2.4-.6.4-.9s-.1-.7-.4-.9l-2.8-2.8c-.2-.2-.6-.4-.9-.4Z"/>
      <path class="cls-2" d="M11.5,21.3c-.7,0-1.3-.3-1.7-.7l-1.7-1.7c-1-1-1-2.5,0-3.5,1-1,2.5-1,3.5,0l1.7,1.7c.5.5.7,1.1.7,1.7s-.3,1.3-.7,1.7c-.5.5-1.1.7-1.7.7ZM10.6,19.8c.2.2.6.4.9.4s.7-.1.9-.4c.2-.2.4-.6.4-.9s-.1-.7-.4-.9l-1.7-1.6c-.5-.5-1.3-.5-1.8,0-.5.5-.5,1.3,0,1.8l1.7,1.7Z"/>
      <path class="cls-2" d="M.8,30.1c-.1,0-.3,0-.4-.2-.2-.2-.2-.6,0-.8l9.3-9.3c.2-.2.6-.2.8,0,.2.2.2.6,0,.8L1.2,29.9c-.1.1-.3.2-.4.2Z"/>
      <path class="cls-2" d="M39.2,28.9c-.1,0-.3,0-.4-.2l-6-6c-.1-.1-.2-.3-.2-.4,0-1.4-.3-2.7-1-3.9h0c-.2-.4,0-.8.2-.9.3-.2.6,0,.8.2h0c.7,1.4,1.1,2.9,1.1,4.4l5.9,5.8c.2.2.2.6,0,.8s-.3.2-.4.2Z"/>
      <path class="cls-2" d="M35.1,39.8c-.1,0-.3,0-.4-.2l-10.6-10.6c-1.5.3-3,0-4.2-.9l-2.1-1.4c-.3-.2-.3-.5-.2-.8.2-.3.5-.3.8-.2l2.1,1.4c1.1.7,2.4.9,3.6.6.2,0,.4,0,.6.2l10.8,10.8c.2.2.2.6,0,.8-.1.1-.3.2-.4.2Z"/>
      <path class="cls-2" d="M16.8,27.4c-.1,0-.3,0-.4-.2l-6.7-6.7c-.2-.2-.2-.6,0-.8.2-.2.6-.2.8,0l6.7,6.7c.2.2.2.6,0,.8-.1.1-.3.2-.4.2Z"/>
      <path class="cls-2" d="M14,30.3c-.1,0-.3,0-.4-.2l-6.7-6.7c-.2-.2-.2-.6,0-.8.2-.2.6-.2.8,0l6.7,6.7c.2.2.2.6,0,.8-.1.1-.3.2-.4.2Z"/>
      <path class="cls-2" d="M25.8,30.1c-.1,0-.3,0-.4-.2-.2-.2-.2-.6,0-.8l7.1-7.1c.2-.2.6-.2.8,0,.2.2.2.6,0,.8l-7.1,7.1c-.1.1-.3.2-.4.2Z"/>
      <path class="cls-2" d="M28.7,32.9c-.1,0-.3,0-.4-.2-.2-.2-.2-.6,0-.8l1-1c.2-.2.6-.2.8,0,.2.2.2.6,0,.8l-1,1c-.1.1-.3.2-.4.2Z"/>
      <path class="cls-2" d="M34.7,26.9c-.1,0-.3,0-.4-.2-.2-.2-.2-.6,0-.8l1.1-1.1c.2-.2.6-.2.8,0,.2.2.2.6,0,.8l-1.1,1.1c-.1.1-.3.2-.4.2Z"/>
      <path class="cls-2" d="M32.2,29.4s0,0-.1,0c0,0,0,0-.1,0,0,0,0,0-.1,0,0,0,0,0,0,0,0,0,0,0,0,0,0,0,0,0,0-.1,0,0,0,0,0-.1,0,0,0,0,0-.1s0,0,0-.1c0,0,0,0,0-.1,0,0,0,0,0-.1,0,0,0,0,0,0,0,0,0,0,0,0,0,0,0,0,.1,0,0,0,0,0,.1,0,0,0,.2,0,.2,0,0,0,0,0,.1,0,0,0,0,0,.1,0,0,0,0,0,0,0,0,0,0,0,0,0,0,0,0,0,0,.1,0,0,0,0,0,.1,0,0,0,0,0,.1s0,0,0,.1c0,0,0,0,0,.1,0,0,0,0,0,.1,0,0,0,0,0,0,0,0,0,0,0,0,0,0,0,0-.1,0,0,0,0,0-.1,0,0,0,0,0-.1,0Z"/>
      <path class="cls-2" d="M5.8,6.4c-.1,0-.3,0-.4-.2L1.7,2.6c-.2-.2-.2-.6,0-.8.2-.2.6-.2.8,0l3.7,3.7c.2.2.2.6,0,.8-.1.1-.3.2-.4.2Z"/>
      <path class="cls-2" d="M9.5,4.1c-.3,0-.6-.3-.6-.6V.8c0-.3.3-.6.6-.6s.6.3.6.6v2.7c0,.3-.3.6-.6.6Z"/>
      <path class="cls-2" d="M3.5,10.1H.8c-.3,0-.6-.3-.6-.6s.3-.6.6-.6h2.7c.3,0,.6.3.6.6s-.3.6-.6.6Z"/>
      <path class="cls-2" d="M34.2,6.4c-.1,0-.3,0-.4-.2-.2-.2-.2-.6,0-.8l3.7-3.7c.2-.2.6-.2.8,0,.2.2.2.6,0,.8l-3.7,3.7c-.1.1-.3.2-.4.2Z"/>
      <path class="cls-2" d="M30.5,4.1c-.3,0-.6-.3-.6-.6V.8c0-.3.3-.6.6-.6s.6.3.6.6v2.7c0,.3-.3.6-.6.6Z"/>
      <path class="cls-2" d="M39.2,10.1h-2.7c-.3,0-.6-.3-.6-.6s.3-.6.6-.6h2.7c.3,0,.6.3.6.6s-.3.6-.6.6Z"/>
    </g>
  </g>
</svg>