<?xml version="1.0" encoding="UTF-8"?>
<svg id="Layer_1" data-name="Layer 1" xmlns="http://www.w3.org/2000/svg" version="1.1" viewBox="0 0 40 40">
  <defs>
    <style>
      .cls-1 {
        fill: #00b1ff;
        stroke-width: 0px;
      }
    </style>
  </defs>
  <path class="cls-1" d="M39.6,28.3c-.8-1.6-2.5-2.4-4.2-2.1,1.1-1.6,1.9-3.4,2.4-5.3,0,0,0,0,0-.1V6c0-.2-.1-.4-.4-.5L24.4.5c-.1,0-.3,0-.4,0l-13.1,5c-.2,0-.4.3-.4.5v13.7h-2.7v-1.7c0-.3-.2-.5-.5-.5H.6c-.3,0-.5.2-.5.5v16.7c0,.3.2.5.5.5h6.8c.3,0,.5-.2.5-.5v-1.3c1,.5,1.9,1,2.7,1.4,5.8,3.1,8.7,4.6,11.6,4.7,0,0,.2,0,.3,0,2.8,0,5.5-1.4,10.8-4,1.3-.6,2.8-1.4,4.4-2.2.9-.4,1.6-1.2,1.9-2.2.3-1,.3-2-.2-2.9ZM11.7,6.4L24.2,1.6l12.5,4.8v14.3c-.7,2.5-1.8,4.6-3.4,6.4l-7,3.4c.2-1.3-.4-2.6-1.4-3.5-1.6-1.2-3.1-2.4-4.7-3.6-1.6-1.2-3.2-2.4-4.7-3.6,0,0-.2-.1-.3-.1h-3.5V6.4h0ZM6.9,34.2H1.1v-15.6h5.7v15.6ZM38.7,30.8c-.2.7-.7,1.2-1.4,1.5-1.7.8-3.1,1.5-4.4,2.2-5.3,2.6-7.9,3.9-10.6,3.9-2.7,0-5.5-1.6-11.2-4.6-1-.5-2-1.1-3.2-1.7v-11.4h7c1.5,1.2,3.1,2.4,4.6,3.5,1.6,1.2,3.1,2.4,4.7,3.6.9.7,1.3,2,.9,3h0c0,.3-.2.5-.4.7-.9,1.2-2.6,1.4-3.8.5l-6.6-5.1-.7.9,6.6,5.1c.7.5,1.5.8,2.3.8,1.1,0,2.3-.5,3-1.5,0-.1.2-.3.3-.4l9.1-4.4c1.3-.6,3,0,3.6,1.3.3.6.4,1.4.1,2.1ZM24.2,22.8c4,0,7.3-3.3,7.3-7.3s-3.3-7.3-7.3-7.3-7.3,3.3-7.3,7.3,3.3,7.3,7.3,7.3ZM24.2,9.2c3.4,0,6.2,2.8,6.2,6.2s-2.8,6.2-6.2,6.2-6.2-2.8-6.2-6.2,2.8-6.2,6.2-6.2ZM22,17.1v-.5h1.1v.5c0,.3.3.5.5.5h.8c.4,0,.8-.4.8-.8s-.4-.8-.8-.8-1.1,0-1.6-.3c-.4-.2-.9-.7-.9-1.6s.7-1.7,1.6-1.9v-1.3h1.1v1.3c.9,0,1.6.7,1.6,1.6v.5h-1.1v-.5c0-.3-.2-.5-.5-.5h-.8c-.4,0-.8.4-.8.8s.1.8,1.4.8,1.9.9,1.9,1.9-.7,1.7-1.6,1.9v1.3h-1.1v-1.3c-.9,0-1.6-.7-1.6-1.6Z"/>
</svg>