<?xml version="1.0" encoding="UTF-8"?>
<svg id="Layer_1" data-name="Layer 1" xmlns="http://www.w3.org/2000/svg" version="1.1" xmlns:xlink="http://www.w3.org/1999/xlink" viewBox="0 0 30 30">
  <defs>
    <style>
      .cls-1 {
        fill: none;
      }

      .cls-1, .cls-2, .cls-3 {
        stroke-width: 0px;
      }

      .cls-2 {
        fill: #00b1ff;
      }

      .cls-4 {
        clip-path: url(#clippath);
      }

      .cls-3 {
        fill: #272e39;
      }
    </style>
    <clipPath id="clippath">
      <rect class="cls-1" y="0" width="30" height="30"/>
    </clipPath>
  </defs>
  <g class="cls-4">
    <g>
      <path class="cls-3" d="M3.6,20.8C-1.2,16-1.2,8.3,3.6,3.6c4.7-4.7,12.5-4.7,17.2,0,4,4,4.6,10,1.8,14.7,0,0-.2.3,0,.6,1.6,1.6,6.2,6.2,6.2,6.2,1.2,1.2,1.5,3,.4,4.1l-.2.2c-1.1,1.1-2.8.8-4.1-.4,0,0-4.6-4.6-6.2-6.2-.3-.3-.6,0-.6,0-4.7,2.8-10.7,2.2-14.7-1.8ZM18.5,18.5c3.5-3.5,3.5-9.2,0-12.7-3.5-3.5-9.2-3.5-12.7,0-3.5,3.5-3.5,9.2,0,12.7,3.5,3.5,9.2,3.5,12.7,0Z"/>
      <path class="cls-2" d="M17.8,11.4c.2,0,.3,0,.5,0,.6-.3.9-1,.7-1.6-1.7-4-6.3-5.9-10.4-4.2-.6.3-.9,1-.7,1.6.3.6,1,.9,1.6.7,2.7-1.2,5.9.1,7.1,2.9.2.5.7.8,1.2.8Z"/>
    </g>
  </g>
</svg>