<?xml version="1.0" encoding="UTF-8"?>
<svg id="Layer_1" data-name="Layer 1" xmlns="http://www.w3.org/2000/svg" version="1.1" viewBox="0 0 120 123">
  <defs>
    <style>
      .cls-1 {
        fill: #00b1ff;
        stroke-width: 0px;
      }

      .cls-2 {
        opacity: .2;
      }
    </style>
  </defs>
  <g class="cls-2">
    <path class="cls-1" d="M45,15.7H11.2C5,15.7,0,20.9,0,27.2v34.4c0,6.3,5,11.5,11.2,11.5h15.1l-5.7,29.8c-.2,1.1,0,2.3.8,3.2.7.9,1.8,1.4,2.9,1.4h12.1c3.3,0,6.2-2.2,7.1-5.3l10.9-26.4c0-.2.1-.3.2-.5,1-3.7,1.5-7.4,1.5-11.2V27.2c0-6.3-5-11.5-11.2-11.5Z"/>
    <path class="cls-1" d="M108.8,15.7h-33.8c-6.2,0-11.2,5.1-11.2,11.5v34.4c0,6.3,5,11.5,11.2,11.5h15.1l-5.7,29.8c-.2,1.1,0,2.3.8,3.2.7.9,1.8,1.4,2.9,1.4h12.2c3.3,0,6.2-2.2,7.1-5.3l10.9-26.4c0-.2.1-.3.2-.5,1-3.7,1.5-7.4,1.5-11.2V27.2c0-6.3-5-11.5-11.2-11.5Z"/>
  </g>
</svg>