<?xml version="1.0" encoding="UTF-8"?>
<svg id="Layer_1" data-name="Layer 1" xmlns="http://www.w3.org/2000/svg" version="1.1" viewBox="0 0 50 50">
  <defs>
    <style>
      .cls-1 {
        fill: #00b1ff;
        stroke-width: 0px;
      }
    </style>
  </defs>
  <path class="cls-1" d="M34.4,21c-5.2-5.2-13.6-5.2-18.8,0-5.2,5.2-5.2,13.6,0,18.8,5.2,5.2,13.6,5.2,18.8,0,5.2-5.2,5.2-13.6,0-18.8ZM19.1,44.2c-2.1-.9-3.9-2.2-5.4-3.9l-3.4,5.8,3.4-.5c.3,0,.6,0,.8.3l2.1,2.6,2.4-4.3ZM36.2,40.3c-1.5,1.7-3.3,3-5.4,3.9l2.5,4.3,2.1-2.6c.2-.2.5-.3.8-.3l3.4.5-3.4-5.8ZM30.3,25.1c-2.9-2.9-7.7-2.9-10.6,0-2.9,2.9-2.9,7.7,0,10.6,2.9,2.9,7.7,2.9,10.6,0,2.9-2.9,2.9-7.7,0-10.6ZM25,21.2c5.1,0,9.2,4.1,9.2,9.2s-4.1,9.2-9.2,9.2-9.2-4.1-9.2-9.2c0-5.1,4.1-9.2,9.2-9.2ZM20.7,31c-.2-.4,0-.9.3-1.1.4-.2.9,0,1.1.3l1.3,2.3,4.5-4.5c.3-.3.9-.3,1.2,0,.3.3.3.8,0,1.2l-5.3,5.3c-.4.4-1,.3-1.3-.2l-1.9-3.2ZM44,9.2l1.6,3.4,3.7.5c.6,0,.9.9.4,1.3l-2.7,2.6.7,3.7c.1.6-.5,1.1-1.1.8l-3.3-1.8-3.3,1.8c-.5.3-1.2-.2-1.1-.8l.7-3.6-2.7-2.6c-.5-.4-.2-1.2.4-1.3l3.7-.5,1.6-3.4c.3-.6,1.1-.6,1.4,0ZM7.3,9.2l1.6,3.4,3.7.5c.6,0,.9.9.4,1.3l-2.7,2.6.7,3.7c.1.6-.5,1.1-1.1.8l-3.3-1.8-3.3,1.8c-.5.3-1.2-.2-1.1-.8l.7-3.6L.2,14.4c-.5-.4-.2-1.2.4-1.3l3.7-.5,1.6-3.4c.3-.6,1.1-.6,1.3,0ZM25.7,1.4l1.6,3.4,3.7.5c.6,0,.9.9.4,1.3l-2.7,2.6.7,3.7c.1.6-.5,1.1-1.1.8l-3.3-1.8-3.3,1.8c-.5.3-1.2-.2-1.1-.8l.7-3.6-2.7-2.6c-.5-.4-.2-1.2.4-1.3l3.7-.5,1.6-3.4c.3-.6,1.1-.5,1.4,0Z"/>
</svg>