<?xml version="1.0" encoding="UTF-8"?>
<svg id="Layer_1" data-name="Layer 1" xmlns="http://www.w3.org/2000/svg" version="1.1" xmlns:xlink="http://www.w3.org/1999/xlink" viewBox="0 0 50 50">
  <defs>
    <style>
      .cls-1 {
        fill: none;
      }

      .cls-1, .cls-2 {
        stroke-width: 0px;
      }

      .cls-2 {
        fill: #00b1ff;
      }

      .cls-3 {
        clip-path: url(#clippath);
      }
    </style>
    <clipPath id="clippath">
      <rect class="cls-1" y="0" width="50" height="50"/>
    </clipPath>
  </defs>
  <g class="cls-3">
    <path class="cls-2" d="M43.5,26c1.2,0,2.4-.4,3.5-1.1,1.8-1.2,3-3.3,3-5.6,0-1.1,0-2.3-.2-3.7,0-.8-.8-1.4-1.6-1.3-1.5.2-3,.9-4.3,2,0-.5-.1-1-.2-1.5,1.4-.7,2.5-1.8,3.1-3.2.8-2,.6-4.4-.7-6.3-.7-1.1-1.4-2.1-2.2-2.9-.5-.6-1.5-.7-2.1-.1-1.3,1.2-2.2,2.8-2.6,4.9-.3,2,0,3.6.7,5.4,3.1,7.3.3,15.6-6.1,19.7-.5.3-.8.7-1.1,1.1h-6.2v-6l5.2,2.7c.5.3,1.1.2,1.5-.1.4-.3.7-.9.6-1.4l-1.2-7.4,5.3-5.2c.4-.4.5-1,.4-1.5-.2-.5-.6-.9-1.2-1l-7.3-1.1-3.3-7.4c-.5-1-2.2-1-2.7,0l-3.3,7.4-7.3,1.1c-.5,0-1,.5-1.2,1-.2.5,0,1.1.4,1.5l5.3,5.2-1.2,7.4c0,.5.1,1.1.6,1.4.4.3,1,.4,1.5.1l5.2-2.7v6h-6.3c-.5-.9-1.4-1.3-2.1-1.9-4.1-3.3-6.2-8.1-6.2-12.7s2.7-6.8,1.9-11.6c-.4-2-1.3-3.7-2.6-4.9-.6-.5-1.5-.5-2.1.1-.8.9-1.5,1.9-2.2,2.9-1.2,1.9-1.5,4.4-.7,6.3.6,1.4,1.7,2.5,3.1,3.2,0,.5-.2,1-.2,1.5-1.3-1.1-2.8-1.8-4.3-2-.4,0-.8,0-1.1.3-.3.2-.5.6-.6,1-.2,1.3-.2,2.5-.2,3.7,0,2.3,1.3,4.5,3.1,5.6,1,.7,2.2,1.1,3.5,1.1s.6,0,.9,0c.2.5.4.9.6,1.3-1.3-.2-3-.1-4.6.7-.7.4-1,1.3-.6,2,.5,1,1.1,2.1,1.9,3.1,1.2,1.8,3.3,3.1,5.7,3.1s2.9-.6,4-1.6c.2.1.3.3.4.3v10.3h-1.5c-.8,0-1.5.7-1.5,1.5s.7,1.5,1.5,1.5h23.4c.8,0,1.5-.7,1.5-1.5s-.7-1.5-1.5-1.5h-1.5v-10.1c0,0,0-.2,0-.3.1,0,.2-.2.3-.2,3,2.7,7.4,1.9,9.8-1.5.7-1,1.4-2,1.9-3.2.3-.7,0-1.6-.7-1.9-1.3-.7-2.9-.9-4.6-.6.2-.5.5-.9.6-1.4.3,0,.6,0,.8,0ZM27.9,42.2h-5.9c-.8,0-1.5-.7-1.5-1.5s.7-1.5,1.5-1.5h5.9c.8,0,1.5.7,1.5,1.5s-.7,1.5-1.5,1.5Z"/>
  </g>
</svg>