<?xml version="1.0" encoding="UTF-8"?>
<svg id="Layer_1" data-name="Layer 1" xmlns="http://www.w3.org/2000/svg" version="1.1" xmlns:xlink="http://www.w3.org/1999/xlink" viewBox="0 0 40 40">
  <defs>
    <style>
      .cls-1 {
        fill: none;
      }

      .cls-1, .cls-2, .cls-3 {
        stroke-width: 0px;
      }

      .cls-2 {
        fill: #00b1ff;
      }

      .cls-4 {
        clip-path: url(#clippath);
      }

      .cls-3 {
        fill: #fff;
      }

      .cls-5 {
        mask: url(#mask);
      }
    </style>
    <clipPath id="clippath">
      <rect class="cls-1" y="0" width="40" height="40"/>
    </clipPath>
    <mask id="mask" x="0" y="0" width="40.1" height="40" maskUnits="userSpaceOnUse">
      <g id="mask0_510_3500" data-name="mask0 510 3500">
        <path class="cls-3" d="M40,0H0v40h40V0Z"/>
      </g>
    </mask>
  </defs>
  <g class="cls-4">
    <g class="cls-5">
      <path class="cls-2" d="M26.5,16.3c0-5.6-4.5-10.1-10.1-10.1s-10.1,4.5-10.1,10.1,4.5,10.1,10.1,10.1,10.1-4.5,10.1-10.1ZM16.4,25.1c-4.9,0-8.8-3.9-8.8-8.8s4-8.8,8.8-8.8,8.8,3.9,8.8,8.8-4,8.8-8.8,8.8ZM16.4,9.4c-3.7,0-6.8,3-6.8,6.8s3,6.8,6.8,6.8,6.8-3,6.8-6.8-3-6.8-6.8-6.8ZM16.4,21.6c-3,0-5.5-2.5-5.5-5.5s2.5-5.5,5.5-5.5,5.5,2.5,5.5,5.5c0,3-2.5,5.5-5.5,5.5ZM20.4,13.1c-.7-.7-1.8-.7-2.4,0l-2.5,2.5-.6-.6c-.3-.3-.8-.5-1.2-.5-.5,0-.9.2-1.2.5-.7.7-.7,1.8,0,2.4l1.7,1.7c.4.4,1,.7,1.5.7s.9-.2,1.2-.5l3.7-3.7c.3-.3.5-.8.5-1.2s-.2-.9-.5-1.2ZM19.5,14.6l-3.7,3.7c-.3.3-.7,0-.8-.2l-1.7-1.7c-.2-.2-.2-.4,0-.6,0,0,.2-.1.3-.1s.2,0,.3.1l1.1,1.1c.1.1.3.2.5.2s.3,0,.5-.2l3-3c0,0,.2-.1.3-.1s.2,0,.3.1c0,0,.1.2.1.3,0,.1,0,.2-.1.3ZM39.7,28.6l-1.2-.5c-.2-.6-.4-1.2-.7-1.8l.5-1.1c.1-.2,0-.5-.1-.7l-1.7-1.7c-.2-.2-.5-.2-.7-.1l-1.2.5c-.6-.3-1.2-.6-1.8-.7l-.5-1.2c0-.2-.3-.4-.6-.4h-2c.1-.3.2-.7.3-1l2.3-.9c.3,0,.4-.3.4-.6v-4.2c0-.3-.2-.5-.4-.6l-2.3-.9c-.3-1.2-.8-2.4-1.4-3.5l1-2.2c.1-.2,0-.5-.1-.7l-3-3c-.2-.2-.5-.2-.7-.1l-2.2,1c-1.1-.6-2.3-1.1-3.5-1.4l-.9-2.3C19,.2,18.8,0,18.5,0h-4.2C14,0,13.8.2,13.7.4l-.9,2.3c-1.2.3-2.4.8-3.5,1.4l-2.2-1c-.2-.1-.5,0-.7.1l-3,3c-.2.2-.2.5-.1.7l1,2.2c-.6,1.1-1.1,2.2-1.4,3.5l-2.3.9c-.3,0-.4.3-.4.6v4.2c0,.3.2.5.4.6l2.3.9c.3,1.2.8,2.4,1.4,3.5l-1,2.2c-.1.2,0,.5.1.7l3,3c.2.2.5.2.7.1l2.2-1c1.1.6,2.3,1.1,3.5,1.4l.9,2.3c0,.2.3.4.6.4h4.2c.3,0,.5-.2.6-.4l.9-2.3c.3,0,.6-.2.9-.3v2.1c0,.3.2.5.4.6l1.2.5c.2.6.4,1.2.7,1.8l-.5,1.1c-.1.2,0,.5.1.7l1.7,1.7c.2.2.5.2.7.1l1.2-.5c.6.3,1.2.6,1.8.7l.5,1.2c0,.2.3.4.6.4h2.4c.3,0,.5-.2.6-.4l.5-1.2c.6-.2,1.2-.4,1.8-.7l1.2.5c.2.1.5,0,.7-.1l1.7-1.7c.2-.2.2-.5.1-.7l-.5-1.1c.3-.6.6-1.2.7-1.8l1.2-.5c.2,0,.4-.3.4-.6v-2.4c0-.3-.2-.5-.4-.6ZM19.4,28.6c-.2,0-.4.2-.5.4l-.8,2.2h-3.4l-.8-2.2c0-.2-.2-.3-.5-.4-1.3-.3-2.6-.8-3.7-1.5-.2-.1-.4-.1-.6,0l-2.1.9-2.4-2.4.9-2.1c0-.2,0-.4,0-.6-.7-1.2-1.2-2.4-1.5-3.7,0-.2-.2-.4-.4-.5l-2.2-.8v-3.3l2.2-.8c.2,0,.3-.2.4-.5.3-1.3.8-2.6,1.5-3.7.1-.2.1-.4,0-.6l-.9-2.1,2.4-2.4,2.1.9c.2,0,.4,0,.6,0,1.2-.7,2.4-1.2,3.7-1.5.2,0,.4-.2.5-.4l.8-2.2h3.4l.8,2.2c0,.2.2.3.5.4,1.3.3,2.6.8,3.7,1.5.2.1.4.1.6,0l2.1-.9,2.4,2.4-.9,2.1c0,.2,0,.4,0,.6.7,1.2,1.2,2.4,1.5,3.7,0,.2.2.4.4.5l2.2.8v3.3l-2.2.8c-.2,0-.3.2-.4.5-.3,1.2-.8,2.4-1.4,3.5-.4.1-.7.3-1,.5l-1.2-.5c-.2-.1-.5,0-.7.1l-1.7,1.7c-.2.2-.2.5-.1.7l.5,1.1c-.2.3-.3.6-.4.9-1.1.6-2.2,1.1-3.4,1.3ZM38.8,31.2l-1.1.4c-.2,0-.3.2-.4.5-.2.7-.5,1.4-.8,2-.1.2-.1.4,0,.6l.5,1-1.1,1.1-1-.5c-.2,0-.4,0-.6,0-.6.4-1.3.7-2.1.8-.2,0-.4.2-.5.4l-.4,1.1h-1.5l-.4-1.1c0-.2-.2-.3-.5-.4-.7-.2-1.4-.5-2-.8-.2-.1-.4-.1-.6,0l-1,.5-1.1-1.1.5-1c0-.2,0-.4,0-.6-.4-.6-.7-1.3-.8-2,0-.2-.2-.4-.4-.5l-1.1-.4v-1.5l1.1-.4c.2,0,.3-.2.4-.5.2-.7.5-1.4.8-2,.1-.2.1-.4,0-.6l-.5-1,1.1-1.1,1,.5c.2,0,.4,0,.6,0,.6-.4,1.3-.7,2-.8.2,0,.4-.2.5-.4l.4-1.1h1.5l.4,1.1c0,.2.2.3.5.4.7.2,1.4.5,2,.8.2.1.4.1.6,0l1-.5,1.1,1.1-.5,1c0,.2,0,.4,0,.6.4.6.7,1.3.9,2,0,.2.2.4.4.5l1.1.4v1.5ZM30.5,25.5c-2.7,0-4.9,2.2-4.9,4.9s2.2,4.9,4.9,4.9,4.9-2.2,4.9-4.9-2.2-4.9-4.9-4.9ZM30.5,34c-2,0-3.6-1.6-3.6-3.6s1.6-3.6,3.6-3.6,3.6,1.6,3.6,3.6-1.6,3.6-3.6,3.6Z"/>
    </g>
  </g>
</svg>