<?xml version="1.0" encoding="UTF-8"?>
<svg id="Layer_1" data-name="Layer 1" xmlns="http://www.w3.org/2000/svg" version="1.1" xmlns:xlink="http://www.w3.org/1999/xlink" viewBox="0 0 80 60">
  <defs>
    <style>
      .cls-1 {
        fill: none;
      }

      .cls-1, .cls-2 {
        stroke-width: 0px;
      }

      .cls-2 {
        fill: #00b1ff;
      }

      .cls-3 {
        clip-path: url(#clippath);
      }

      .cls-4 {
        opacity: .2;
      }
    </style>
    <clipPath id="clippath">
      <rect class="cls-1" y="0" width="80" height="60"/>
    </clipPath>
  </defs>
  <g class="cls-3">
    <g class="cls-4">
      <path class="cls-2" d="M30,0H7.5C3.4,0,0,3.4,0,7.5v22.5c0,4.1,3.4,7.5,7.5,7.5h10.1l-3.8,19.5c-.1.7,0,1.5.5,2.1.5.6,1.2.9,1.9.9h8.1c2.2,0,4.1-1.4,4.8-3.5l7.3-17.3c0,0,0-.2.1-.3.7-2.4,1-4.9,1-7.4V7.5C37.5,3.4,34.1,0,30,0Z"/>
      <path class="cls-2" d="M72.5,0h-22.5C45.9,0,42.5,3.4,42.5,7.5v22.5c0,4.1,3.4,7.5,7.5,7.5h10.1l-3.8,19.5c-.1.7,0,1.5.5,2.1.5.6,1.2.9,1.9.9h8.1c2.2,0,4.1-1.4,4.8-3.5l7.3-17.3c0,0,0-.2.1-.3.7-2.4,1-4.9,1-7.4V7.5C80,3.4,76.6,0,72.5,0Z"/>
    </g>
  </g>
</svg>