<?xml version="1.0" encoding="UTF-8"?>
<svg id="Layer_1" data-name="Layer 1" xmlns="http://www.w3.org/2000/svg" version="1.1" viewBox="0 0 135 60">
  <defs>
    <style>
      .cls-1 {
        fill: #fff;
        stroke-width: 0px;
      }
    </style>
  </defs>
  <g>
    <polygon class="cls-1" points="13.4 42.5 19.7 7.9 14.2 7.9 9.8 34.9 5.5 7.9 0 7.9 6.2 42.5 13.4 42.5"/>
    <polygon class="cls-1" points="38.9 37.3 29.3 37.3 29.3 27.8 36.3 27.8 36.3 22.6 29.3 22.6 29.3 13.1 38.9 13.1 38.9 7.9 24 7.9 24 42.5 38.9 42.5 38.9 37.3"/>
    <polygon class="cls-1" points="47.7 20.4 54.9 42.5 60.5 42.5 60.5 7.9 55.3 7.9 55.3 31.2 48.3 7.9 42.5 7.9 42.5 42.5 47.7 42.5 47.7 20.4"/>
    <polygon class="cls-1" points="75.5 42.5 75.5 13.2 81 13.2 81 7.9 64.7 7.9 64.7 13.2 70.2 13.2 70.2 42.5 75.5 42.5"/>
    <polygon class="cls-1" points="90.1 42.5 95.4 42.5 95.4 13.2 100.9 13.2 100.9 7.9 84.6 7.9 84.6 13.2 90.1 13.2 90.1 42.5"/>
    <path class="cls-1" d="M105.8,42.5l1.3-8h5.5l1.2,8h5.5l-5.8-34.6h-7.2l-5.9,34.6h5.4ZM109.8,15.9l1.9,13.6h-3.9l1.9-13.6Z"/>
    <polygon class="cls-1" points="118.7 7.9 118.7 13.2 124.3 13.2 124.3 42.5 129.5 42.5 129.5 13.2 135 13.2 135 7.9 118.7 7.9"/>
  </g>
  <g>
    <polygon class="cls-1" points="6.5 48.9 8.9 48.9 8.9 48.2 6.5 48.2 6.5 46.3 9 46.3 9 45.6 5.7 45.6 5.7 51.8 9.1 51.8 9.1 51.1 6.5 51.1 6.5 48.9"/>
    <path class="cls-1" d="M13,48.7c-.3.8-.5,1.6-.7,2.3h0c-.2-.7-.4-1.5-.7-2.3l-1-3h-.9l2,6.2h.9l2.2-6.2h-.9l-1,3Z"/>
    <polygon class="cls-1" points="16.5 48.9 18.9 48.9 18.9 48.2 16.5 48.2 16.5 46.3 19.1 46.3 19.1 45.6 15.7 45.6 15.7 51.8 19.2 51.8 19.2 51.1 16.5 51.1 16.5 48.9"/>
    <path class="cls-1" d="M24.3,48.2c0,1,0,1.7,0,2.5h0c-.3-.6-.6-1.3-1.1-2l-2-3.1h-.9v6.2h.8v-2.6c0-1,0-1.8,0-2.5h0c.3.7.7,1.4,1.2,2l2,3.1h.8v-6.2h-.8v2.6Z"/>
    <polygon class="cls-1" points="25.9 46.3 27.8 46.3 27.8 51.8 28.6 51.8 28.6 46.3 30.5 46.3 30.5 45.6 25.9 45.6 25.9 46.3"/>
    <path class="cls-1" d="M38,45.6l-1.1,3c-.3.8-.5,1.5-.6,2.1h0c-.2-.6-.4-1.3-.6-2.1l-1.1-3h-1l-.4,6.2h.8l.2-2.6c0-.9.1-2,.1-2.7h0c.2.7.4,1.5.7,2.4l1,2.9h.6l1.1-3c.3-.9.6-1.6.8-2.3h0c0,.8,0,1.8,0,2.7l.2,2.7h.8l-.4-6.2h-1Z"/>
    <path class="cls-1" d="M42.4,45.6l-2.1,6.2h.8l.6-1.9h2.2l.7,1.9h.9l-2.1-6.2h-1ZM41.9,49.2l.6-1.8c.1-.4.2-.8.3-1.1h0c0,.4.2.7.3,1.1l.6,1.8h-1.9Z"/>
    <path class="cls-1" d="M50.4,48.2c0,1,0,1.7,0,2.5h0c-.3-.6-.6-1.3-1.1-2l-2-3.1h-.9v6.2h.8v-2.6c0-1,0-1.8,0-2.5h0c.3.7.7,1.4,1.2,2l2,3.1h.8v-6.2h-.8v2.6Z"/>
    <path class="cls-1" d="M54.4,45.6l-2.1,6.2h.8l.6-1.9h2.2l.7,1.9h.9l-2.1-6.2h-1ZM53.9,49.2l.6-1.8c.1-.4.2-.8.3-1.1h0c0,.4.2.7.3,1.1l.6,1.8h-1.9Z"/>
    <path class="cls-1" d="M61,49.2h1.3v1.8c-.2,0-.5.2-1.1.2-1.4,0-2.4-.9-2.4-2.5s1-2.5,2.5-2.5,1,.1,1.4.3l.2-.6c-.3-.1-.8-.3-1.5-.3-2.1,0-3.3,1.3-3.3,3.2,0,1,.3,1.8.9,2.3.6.6,1.4.8,2.3.8s1.5-.2,1.9-.3v-3h-2v.6Z"/>
    <polygon class="cls-1" points="65.3 48.9 67.7 48.9 67.7 48.2 65.3 48.2 65.3 46.3 67.8 46.3 67.8 45.6 64.5 45.6 64.5 51.8 67.9 51.8 67.9 51.1 65.3 51.1 65.3 48.9"/>
    <path class="cls-1" d="M73.9,45.6l-1.1,3c-.3.8-.5,1.5-.6,2.1h0c-.2-.6-.4-1.3-.6-2.1l-1.1-3h-1l-.4,6.2h.8l.2-2.6c0-.9.1-2,.1-2.7h0c.2.7.4,1.5.7,2.4l1,2.9h.6l1.1-3c.3-.9.6-1.6.8-2.3h0c0,.8,0,1.8,0,2.7l.2,2.7h.8l-.4-6.2h-1Z"/>
    <polygon class="cls-1" points="77.5 48.9 79.9 48.9 79.9 48.2 77.5 48.2 77.5 46.3 80 46.3 80 45.6 76.7 45.6 76.7 51.8 80.2 51.8 80.2 51.1 77.5 51.1 77.5 48.9"/>
    <path class="cls-1" d="M85.3,48.2c0,1,0,1.7,0,2.5h0c-.3-.6-.6-1.3-1.1-2l-2-3.1h-.9v6.2h.8v-2.6c0-1,0-1.8,0-2.5h0c.3.7.7,1.4,1.2,2l2,3.1h.8v-6.2h-.8v2.6Z"/>
    <polygon class="cls-1" points="86.9 46.3 88.8 46.3 88.8 51.8 89.6 51.8 89.6 46.3 91.5 46.3 91.5 45.6 86.9 45.6 86.9 46.3"/>
    <path class="cls-1" d="M96.1,48.3c-.9-.3-1.2-.6-1.2-1.2s.3-.9,1.2-.9,1,.2,1.2.3l.2-.6c-.3-.2-.7-.3-1.4-.3-1.2,0-2,.7-2,1.7s.6,1.4,1.6,1.7c.8.3,1.2.6,1.2,1.2s-.5,1.1-1.3,1.1-1.1-.2-1.4-.4l-.2.7c.3.2,1,.4,1.6.4,1.5,0,2.2-.8,2.2-1.8s-.5-1.4-1.6-1.8"/>
    <polygon class="cls-1" points="99.8 48.9 102.2 48.9 102.2 48.2 99.8 48.2 99.8 46.3 102.3 46.3 102.3 45.6 99 45.6 99 51.8 102.4 51.8 102.4 51.1 99.8 51.1 99.8 48.9"/>
    <path class="cls-1" d="M106.3,48.9h0c.6-.2,1.2-.8,1.2-1.6s-.2-.9-.5-1.2c-.4-.3-.9-.5-1.8-.5s-1.1,0-1.5.1v6.1h.8v-2.7h.8c.7,0,1.1.3,1.2,1.2.2.8.3,1.3.4,1.5h.8c-.1-.2-.3-.8-.5-1.7-.1-.6-.4-1.1-.9-1.2M105.3,48.5h-.8v-2.3c.1,0,.4,0,.8,0,.8,0,1.4.4,1.4,1.2s-.5,1.2-1.4,1.2"/>
    <path class="cls-1" d="M111.4,48.7c-.3.8-.5,1.6-.7,2.3h0c-.2-.7-.4-1.5-.7-2.3l-1-3h-.9l2,6.2h.9l2.2-6.2h-.9l-1,3Z"/>
    <rect class="cls-1" x="114.2" y="45.6" width=".8" height="6.2"/>
    <path class="cls-1" d="M119.4,46.2c.5,0,.9.1,1.2.3l.2-.6c-.2-.1-.7-.3-1.5-.3-1.9,0-3.2,1.3-3.2,3.2s1.3,3.1,3,3.1,1.3-.1,1.6-.3l-.2-.6c-.3.2-.8.3-1.3.3-1.5,0-2.4-1-2.4-2.5s1-2.5,2.4-2.5"/>
    <polygon class="cls-1" points="122.8 48.9 125.2 48.9 125.2 48.2 122.8 48.2 122.8 46.3 125.4 46.3 125.4 45.6 122.1 45.6 122.1 51.8 125.5 51.8 125.5 51.1 122.8 51.1 122.8 48.9"/>
    <path class="cls-1" d="M128.6,48.3c-.9-.3-1.2-.6-1.2-1.2s.3-.9,1.2-.9,1,.2,1.2.3l.2-.6c-.3-.2-.7-.3-1.4-.3-1.2,0-2,.7-2,1.7s.6,1.4,1.6,1.7c.8.3,1.2.6,1.2,1.2s-.5,1.1-1.3,1.1-1.1-.2-1.4-.4l-.2.7c.3.2,1,.4,1.6.4,1.5,0,2.2-.8,2.2-1.8s-.5-1.4-1.6-1.8"/>
  </g>
</svg>