<?xml version="1.0" encoding="UTF-8"?>
<svg id="Layer_1" data-name="Layer 1" xmlns="http://www.w3.org/2000/svg" version="1.1" viewBox="0 0 135 60">
  <defs>
    <style>
      .cls-1 {
        fill: #263063;
        stroke-width: 0px;
      }
    </style>
  </defs>
  <g>
    <polygon class="cls-1" points="15 42.2 21.1 8.6 15.8 8.6 11.5 34.8 7.3 8.6 2 8.6 8 42.2 15 42.2"/>
    <polygon class="cls-1" points="39.8 37.1 30.4 37.1 30.4 27.9 37.2 27.9 37.2 22.8 30.4 22.8 30.4 13.6 39.8 13.6 39.8 8.6 25.3 8.6 25.3 42.2 39.8 42.2 39.8 37.1"/>
    <polygon class="cls-1" points="48.3 20.6 55.3 42.2 60.7 42.2 60.7 8.6 55.6 8.6 55.6 31.1 48.9 8.6 43.2 8.6 43.2 42.2 48.3 42.2 48.3 20.6"/>
    <polygon class="cls-1" points="75.2 42.2 75.2 13.7 80.6 13.7 80.6 8.6 64.8 8.6 64.8 13.7 70.2 13.7 70.2 42.2 75.2 42.2"/>
    <polygon class="cls-1" points="89.5 42.2 94.5 42.2 94.5 13.7 99.9 13.7 99.9 8.6 84.1 8.6 84.1 13.7 89.5 13.7 89.5 42.2"/>
    <path class="cls-1" d="M104.6,42.2l1.2-7.7h5.3l1.2,7.7h5.3l-5.6-33.6h-7l-5.7,33.6h5.3ZM108.5,16.3l1.9,13.2h-3.8l1.9-13.2Z"/>
    <polygon class="cls-1" points="117.2 8.6 117.2 13.7 122.6 13.7 122.6 42.2 127.6 42.2 127.6 13.7 133 13.7 133 8.6 117.2 8.6"/>
  </g>
  <g>
    <polygon class="cls-1" points="8.3 48.3 10.6 48.3 10.6 47.7 8.3 47.7 8.3 45.8 10.8 45.8 10.8 45.2 7.5 45.2 7.5 51.1 10.9 51.1 10.9 50.5 8.3 50.5 8.3 48.3"/>
    <path class="cls-1" d="M14.6,48.1c-.3.8-.5,1.5-.7,2.2h0c-.2-.7-.4-1.4-.6-2.2l-.9-2.9h-.8l2,6h.9l2.1-6h-.8l-1,3Z"/>
    <polygon class="cls-1" points="18.1 48.3 20.4 48.3 20.4 47.7 18.1 47.7 18.1 45.8 20.5 45.8 20.5 45.2 17.3 45.2 17.3 51.1 20.7 51.1 20.7 50.5 18.1 50.5 18.1 48.3"/>
    <path class="cls-1" d="M25.6,47.7c0,.9,0,1.7,0,2.5h0c-.3-.6-.6-1.2-1.1-1.9l-1.9-3h-.8v6h.7v-2.6c0-1,0-1.7,0-2.5h0c.3.6.7,1.3,1.1,2l1.9,3h.8v-6h-.7v2.5Z"/>
    <polygon class="cls-1" points="27.2 45.8 29 45.8 29 51.1 29.8 51.1 29.8 45.8 31.6 45.8 31.6 45.2 27.2 45.2 27.2 45.8"/>
    <path class="cls-1" d="M38.9,45.2l-1.1,2.9c-.3.8-.5,1.4-.6,2h0c-.2-.6-.4-1.3-.6-2l-1-2.9h-1l-.4,6h.7l.2-2.6c0-.9,0-1.9.1-2.6h0c.2.7.4,1.5.7,2.3l1,2.8h.6l1.1-2.9c.3-.8.6-1.6.8-2.3h0c0,.7,0,1.7,0,2.6l.2,2.6h.8l-.4-6h-1Z"/>
    <path class="cls-1" d="M43.1,45.2l-2,6h.8l.6-1.9h2.1l.6,1.9h.8l-2-6h-.9ZM42.7,48.7l.6-1.7c.1-.4.2-.7.3-1.1h0c0,.3.2.7.3,1.1l.6,1.7h-1.8Z"/>
    <path class="cls-1" d="M50.9,47.7c0,.9,0,1.7,0,2.5h0c-.3-.6-.6-1.2-1.1-1.9l-1.9-3h-.8v6h.7v-2.6c0-1,0-1.7,0-2.5h0c.3.6.7,1.3,1.1,2l1.9,3h.8v-6h-.7v2.5Z"/>
    <path class="cls-1" d="M54.8,45.2l-2,6h.8l.6-1.9h2.1l.6,1.9h.8l-2-6h-.9ZM54.3,48.7l.6-1.7c.1-.4.2-.7.3-1.1h0c0,.3.2.7.3,1.1l.6,1.7h-1.8Z"/>
    <path class="cls-1" d="M61.2,48.6h1.2v1.8c-.2,0-.5.2-1,.2-1.4,0-2.3-.9-2.3-2.4s.9-2.4,2.4-2.4,1,.1,1.3.3l.2-.6c-.3-.1-.8-.3-1.5-.3-2,0-3.2,1.3-3.2,3.1,0,.9.3,1.7.8,2.2.6.6,1.3.8,2.2.8s1.5-.2,1.8-.3v-2.9h-2v.6Z"/>
    <polygon class="cls-1" points="65.3 48.3 67.7 48.3 67.7 47.7 65.3 47.7 65.3 45.8 67.8 45.8 67.8 45.2 64.6 45.2 64.6 51.1 67.9 51.1 67.9 50.5 65.3 50.5 65.3 48.3"/>
    <path class="cls-1" d="M73.7,45.2l-1.1,2.9c-.3.8-.5,1.4-.6,2h0c-.2-.6-.4-1.3-.6-2l-1-2.9h-1l-.4,6h.7l.2-2.6c0-.9,0-1.9.1-2.6h0c.2.7.4,1.5.7,2.3l1,2.8h.6l1.1-2.9c.3-.8.6-1.6.8-2.3h0c0,.7,0,1.7,0,2.6l.2,2.6h.8l-.4-6h-1Z"/>
    <polygon class="cls-1" points="77.2 48.3 79.5 48.3 79.5 47.7 77.2 47.7 77.2 45.8 79.7 45.8 79.7 45.2 76.4 45.2 76.4 51.1 79.8 51.1 79.8 50.5 77.2 50.5 77.2 48.3"/>
    <path class="cls-1" d="M84.7,47.7c0,.9,0,1.7,0,2.5h0c-.3-.6-.6-1.2-1.1-1.9l-1.9-3h-.8v6h.7v-2.6c0-1,0-1.7,0-2.5h0c.3.6.7,1.3,1.1,2l1.9,3h.8v-6h-.7v2.5Z"/>
    <polygon class="cls-1" points="86.3 45.8 88.1 45.8 88.1 51.1 88.9 51.1 88.9 45.8 90.7 45.8 90.7 45.2 86.3 45.2 86.3 45.8"/>
    <path class="cls-1" d="M95.3,47.7c-.8-.3-1.2-.6-1.2-1.2s.3-.9,1.1-.9.9.2,1.1.3l.2-.6c-.3-.2-.7-.3-1.3-.3-1.2,0-1.9.7-1.9,1.6s.6,1.3,1.6,1.7c.8.3,1.1.6,1.1,1.2s-.5,1-1.3,1-1-.2-1.4-.4l-.2.6c.3.2.9.4,1.5.4,1.4,0,2.1-.8,2.1-1.7s-.5-1.4-1.5-1.8"/>
    <polygon class="cls-1" points="98.8 48.3 101.1 48.3 101.1 47.7 98.8 47.7 98.8 45.8 101.3 45.8 101.3 45.2 98 45.2 98 51.1 101.4 51.1 101.4 50.5 98.8 50.5 98.8 48.3"/>
    <path class="cls-1" d="M105.1,48.3h0c.6-.2,1.1-.8,1.1-1.6s-.2-.9-.5-1.1c-.4-.3-.9-.5-1.7-.5s-1.1,0-1.5.1v5.9h.8v-2.6h.7c.7,0,1,.3,1.2,1.2.2.7.3,1.3.4,1.4h.8c-.1-.2-.3-.8-.5-1.6-.1-.6-.4-1-.9-1.2M104.1,48h-.8v-2.2c.1,0,.4,0,.8,0,.8,0,1.4.3,1.4,1.1s-.5,1.1-1.3,1.1"/>
    <path class="cls-1" d="M110.1,48.1c-.3.8-.5,1.5-.7,2.2h0c-.2-.7-.4-1.4-.6-2.2l-.9-2.9h-.8l2,6h.9l2.1-6h-.8l-1,3Z"/>
    <rect class="cls-1" x="112.8" y="45.2" width=".8" height="6"/>
    <path class="cls-1" d="M117.9,45.7c.5,0,.9.1,1.2.2l.2-.6c-.2-.1-.7-.3-1.4-.3-1.9,0-3.1,1.3-3.1,3.1s1.3,3,3,3,1.3-.1,1.6-.3l-.2-.6c-.3.2-.8.2-1.3.2-1.5,0-2.3-.9-2.3-2.4s.9-2.5,2.3-2.5"/>
    <polygon class="cls-1" points="121.2 48.3 123.5 48.3 123.5 47.7 121.2 47.7 121.2 45.8 123.7 45.8 123.7 45.2 120.4 45.2 120.4 51.1 123.8 51.1 123.8 50.5 121.2 50.5 121.2 48.3"/>
    <path class="cls-1" d="M126.8,47.7c-.8-.3-1.2-.6-1.2-1.2s.3-.9,1.1-.9.9.2,1.1.3l.2-.6c-.3-.2-.7-.3-1.3-.3-1.2,0-1.9.7-1.9,1.6s.6,1.3,1.6,1.7c.8.3,1.1.6,1.1,1.2s-.5,1-1.3,1-1-.2-1.4-.4l-.2.6c.3.2.9.4,1.5.4,1.4,0,2.1-.8,2.1-1.7s-.5-1.4-1.5-1.8"/>
  </g>
</svg>