<?xml version="1.0" encoding="UTF-8"?>
<svg id="Layer_1" data-name="Layer 1" xmlns="http://www.w3.org/2000/svg" version="1.1" xmlns:xlink="http://www.w3.org/1999/xlink" viewBox="0 0 250 60">
  <defs>
    <style>
      .cls-1 {
        fill: #272e39;
      }

      .cls-1, .cls-2 {
        fill-rule: evenodd;
      }

      .cls-1, .cls-2, .cls-3 {
        stroke-width: 0px;
      }

      .cls-2 {
        fill: #fc0017;
      }

      .cls-3 {
        fill: none;
      }

      .cls-4 {
        clip-path: url(#clippath);
      }
    </style>
    <clipPath id="clippath">
      <rect class="cls-3" y="0" width="250" height="60"/>
    </clipPath>
  </defs>
  <g class="cls-4">
    <g>
      <path class="cls-2" d="M132.8,21.7c46.6-2.3,84.7-5.3,117.2,6.2-40-8-75.8-6.7-116.8-1.9C81.7,32,28.4-.4,1,26.8c13.8-29.9,75.8-2.2,131.8-5Z"/>
      <path class="cls-1" d="M158.6,15.1C127.5,1.2,95.5,1.6,59.6,8.4c-18.7,3.6-33.2-1-41.9-5.9,37.4,15.6,71.9-21.8,140.9,12.6Z"/>
      <path class="cls-1" d="M215.6,59.8h-7.8l-5.2-6.5c1.7-1.9,2.7-4.1,3-6.4l10,12.8ZM201.5,51.8c-5.1-6.4-2.5-3.2-9.4-11.6l-15.7,19.6h-7.8l18.9-23.8c.5-.6,1.1-1.2,2.1-1.7,1-.6,1.9-.8,2.7-.8s1.7.2,2.7.8c.8.5,1.4,1.1,2.1,1.7l6.7,8.5c.3,2.5-.5,5.2-2.2,7.3Z"/>
      <path class="cls-1" d="M176.2,38h-13.6v21.7h-6v-21.7h-13.8v-4.7h33.5v4.7Z"/>
      <path class="cls-1" d="M137.4,57.5c0,1.7-.8,2.5-2.2,2.5s-2.4-.5-3.8-1.6l-22.4-17v18.2h-6v-24c0-.6.2-1.2.6-1.6.5-.5,1.1-.7,1.9-.7s2.2.5,3.5,1.3l22.4,16.9v-18.2h6v24.1Z"/>
      <path class="cls-1" d="M95.8,59.8h-30.1v-26.4h30.1v4.7h-24v6h22.4v4.7h-22.4v6.5h24v4.6Z"/>
      <path class="cls-1" d="M60.1,59.8h-9l-9.7-7.4h-13.2v-4.6h16.3c2.2,0,4.1-.4,5.7-1.1,1.7-.8,2.5-2.2,2.5-3.7,0-3.2-2.7-4.9-8.2-4.9h-19.8v21.7h-6v-26.4h24.9c4.4,0,8.1.7,10.8,2.2,3.2,1.7,4.8,4.1,4.8,7.3s-1,4.1-2.7,5.8c-1.7,1.4-4,2.5-7,3.1l10.6,8Z"/>
      <path class="cls-1" d="M250,59.8h-30v-26.4h6v21.8h24v4.6Z"/>
      <path class="cls-1" d="M9.2,33.4v1.8l-2.5,1.9v2.5h-1.6v-3.2c0-.5-.2-.8-.3-1.1-.5-.4-.8-.5-1.4-.5-1.1,0-1.7.5-1.7,1.6v4h7.6v1.2H0v-4.9c0-.8.3-1.6.8-2.2.6-.6,1.4-1,2.5-1s1.4.2,1.9.6c.6.2,1,.7,1.1,1.3l2.9-2ZM9.2,52.3v4c0,1-.5,1.8-1.3,2.5-1,.6-2.1,1-3.3,1s-2.4-.4-3.2-1c-1-.7-1.4-1.6-1.4-2.5v-4h1.6v4c0,.6.3,1.2.8,1.7.6.5,1.3.6,2.2.6s1.6-.2,2.1-.6c.5-.5.8-1,.8-1.7v-4h1.7ZM9.2,42.4v1.6c-5.9,2.6-3,1.4-6.8,3.1l6.8,3.1v1.4l-8.2-3.7c-.2-.1-.5-.2-.6-.4-.2-.2-.3-.5-.3-.6s.2-.4.3-.6c.2-.1.3-.2.6-.4l8.2-3.6Z"/>
      <path class="cls-2" d="M202.6,53.2c-2.4,2.8-6.2,4.7-10.5,5.5,4.6,0,8.9-1.4,11.7-3.8,1.7-1.4,3.2-3.2,3.8-5.2.3-1,.5-2,.5-3.1,0-4.4-3-8.3-7.6-10.4,3.6,2.9,5.4,6.8,4.9,10.8-.2.7-.3,1.4-.5,2.3-.5,1.3-1.3,2.8-2.4,4Z"/>
    </g>
  </g>
</svg>